<mxfile host="Electron" modified="2023-12-13T19:30:39.180Z" agent="Mozilla/5.0 (Windows NT 10.0; Win64; x64) AppleWebKit/537.36 (KHTML, like Gecko) draw.io/22.1.2 Chrome/114.0.5735.289 Electron/25.9.4 Safari/537.36" etag="9L-nvwjhT7wE6StjWb9y" version="22.1.2" type="device">
  <diagram name="Page-1" id="oIxRmLsyfyae5c8s4XnK">
    <mxGraphModel dx="1232" dy="995" grid="1" gridSize="10" guides="1" tooltips="1" connect="1" arrows="1" fold="1" page="1" pageScale="1" pageWidth="850" pageHeight="1100" math="0" shadow="0">
      <root>
        <mxCell id="0" />
        <mxCell id="1" parent="0" />
        <mxCell id="tfiWh8xOHerXuObjwz7h-82" style="edgeStyle=orthogonalEdgeStyle;rounded=0;orthogonalLoop=1;jettySize=auto;html=1;entryX=0.5;entryY=0;entryDx=0;entryDy=0;" parent="1" source="tfiWh8xOHerXuObjwz7h-1" target="tfiWh8xOHerXuObjwz7h-78" edge="1">
          <mxGeometry relative="1" as="geometry" />
        </mxCell>
        <mxCell id="tfiWh8xOHerXuObjwz7h-1" value="&lt;font color=&quot;#66cc00&quot;&gt;&lt;span style=&quot;font-size: 14px;&quot;&gt;&lt;b&gt;S_data_0&lt;/b&gt;&lt;/span&gt;&lt;/font&gt;" style="text;html=1;align=center;verticalAlign=middle;resizable=0;points=[];autosize=1;strokeColor=none;fillColor=none;" parent="1" vertex="1">
          <mxGeometry x="354.5" y="120" width="80" height="30" as="geometry" />
        </mxCell>
        <mxCell id="tfiWh8xOHerXuObjwz7h-84" style="edgeStyle=orthogonalEdgeStyle;rounded=0;orthogonalLoop=1;jettySize=auto;html=1;" parent="1" source="tfiWh8xOHerXuObjwz7h-2" target="tfiWh8xOHerXuObjwz7h-81" edge="1">
          <mxGeometry relative="1" as="geometry" />
        </mxCell>
        <mxCell id="tfiWh8xOHerXuObjwz7h-2" value="&lt;font color=&quot;#66cc00&quot;&gt;&lt;span style=&quot;font-size: 14px;&quot;&gt;&lt;b&gt;S_data_1&lt;/b&gt;&lt;/span&gt;&lt;/font&gt;" style="text;html=1;align=center;verticalAlign=middle;resizable=0;points=[];autosize=1;strokeColor=none;fillColor=none;" parent="1" vertex="1">
          <mxGeometry x="445" y="120" width="80" height="30" as="geometry" />
        </mxCell>
        <mxCell id="tfiWh8xOHerXuObjwz7h-83" style="edgeStyle=orthogonalEdgeStyle;rounded=0;orthogonalLoop=1;jettySize=auto;html=1;entryX=0.5;entryY=0;entryDx=0;entryDy=0;" parent="1" source="tfiWh8xOHerXuObjwz7h-3" target="tfiWh8xOHerXuObjwz7h-79" edge="1">
          <mxGeometry relative="1" as="geometry" />
        </mxCell>
        <mxCell id="tfiWh8xOHerXuObjwz7h-3" value="&lt;font color=&quot;#66cc00&quot;&gt;&lt;span style=&quot;font-size: 14px;&quot;&gt;&lt;b&gt;P_data&lt;/b&gt;&lt;/span&gt;&lt;/font&gt;" style="text;html=1;align=center;verticalAlign=middle;resizable=0;points=[];autosize=1;strokeColor=none;fillColor=none;" parent="1" vertex="1">
          <mxGeometry x="405" y="80" width="70" height="30" as="geometry" />
        </mxCell>
        <mxCell id="tfiWh8xOHerXuObjwz7h-72" style="edgeStyle=orthogonalEdgeStyle;rounded=0;orthogonalLoop=1;jettySize=auto;html=1;entryX=0;entryY=0.5;entryDx=0;entryDy=0;" parent="1" source="tfiWh8xOHerXuObjwz7h-4" target="tfiWh8xOHerXuObjwz7h-16" edge="1">
          <mxGeometry relative="1" as="geometry">
            <Array as="points">
              <mxPoint x="50" y="260" />
            </Array>
          </mxGeometry>
        </mxCell>
        <mxCell id="tfiWh8xOHerXuObjwz7h-4" value="&lt;font color=&quot;#66cc00&quot;&gt;&lt;span style=&quot;font-size: 14px;&quot;&gt;&lt;b&gt;en&lt;br&gt;&lt;/b&gt;&lt;/span&gt;&lt;/font&gt;" style="text;html=1;align=center;verticalAlign=middle;resizable=0;points=[];autosize=1;strokeColor=none;fillColor=none;" parent="1" vertex="1">
          <mxGeometry x="29" y="170" width="40" height="30" as="geometry" />
        </mxCell>
        <mxCell id="tfiWh8xOHerXuObjwz7h-70" style="edgeStyle=orthogonalEdgeStyle;rounded=0;orthogonalLoop=1;jettySize=auto;html=1;" parent="1" target="tfiWh8xOHerXuObjwz7h-5" edge="1">
          <mxGeometry relative="1" as="geometry">
            <mxPoint x="230" y="590" as="sourcePoint" />
          </mxGeometry>
        </mxCell>
        <mxCell id="tfiWh8xOHerXuObjwz7h-5" value="&lt;span style=&quot;font-size: 14px;&quot;&gt;&lt;b style=&quot;&quot;&gt;&lt;font color=&quot;#ff0000&quot;&gt;S_addr_0&lt;/font&gt;&lt;/b&gt;&lt;/span&gt;" style="text;html=1;align=center;verticalAlign=middle;resizable=0;points=[];autosize=1;strokeColor=none;fillColor=none;" parent="1" vertex="1">
          <mxGeometry x="264.5" y="575" width="90" height="30" as="geometry" />
        </mxCell>
        <mxCell id="tfiWh8xOHerXuObjwz7h-71" style="edgeStyle=orthogonalEdgeStyle;rounded=0;orthogonalLoop=1;jettySize=auto;html=1;exitX=0.5;exitY=0;exitDx=0;exitDy=0;" parent="1" source="tfiWh8xOHerXuObjwz7h-52" target="tfiWh8xOHerXuObjwz7h-6" edge="1">
          <mxGeometry relative="1" as="geometry">
            <Array as="points">
              <mxPoint x="130" y="535" />
            </Array>
          </mxGeometry>
        </mxCell>
        <mxCell id="tfiWh8xOHerXuObjwz7h-6" value="&lt;font color=&quot;#ff0000&quot;&gt;&lt;span style=&quot;font-size: 14px;&quot;&gt;&lt;b&gt;S_addr_1&lt;/b&gt;&lt;/span&gt;&lt;/font&gt;" style="text;html=1;align=center;verticalAlign=middle;resizable=0;points=[];autosize=1;strokeColor=none;fillColor=none;" parent="1" vertex="1">
          <mxGeometry x="225" y="520" width="90" height="30" as="geometry" />
        </mxCell>
        <mxCell id="tfiWh8xOHerXuObjwz7h-69" style="edgeStyle=orthogonalEdgeStyle;rounded=0;orthogonalLoop=1;jettySize=auto;html=1;exitX=0.5;exitY=1;exitDx=0;exitDy=0;entryX=0;entryY=0.6;entryDx=0;entryDy=0;entryPerimeter=0;" parent="1" source="tfiWh8xOHerXuObjwz7h-12" target="tfiWh8xOHerXuObjwz7h-7" edge="1">
          <mxGeometry relative="1" as="geometry" />
        </mxCell>
        <mxCell id="tfiWh8xOHerXuObjwz7h-7" value="&lt;font color=&quot;#ff0000&quot;&gt;&lt;span style=&quot;font-size: 14px;&quot;&gt;&lt;b&gt;P_addr&lt;/b&gt;&lt;/span&gt;&lt;/font&gt;" style="text;html=1;align=center;verticalAlign=middle;resizable=0;points=[];autosize=1;strokeColor=none;fillColor=none;" parent="1" vertex="1">
          <mxGeometry x="210" y="300" width="70" height="30" as="geometry" />
        </mxCell>
        <mxCell id="tfiWh8xOHerXuObjwz7h-180" style="edgeStyle=orthogonalEdgeStyle;rounded=0;orthogonalLoop=1;jettySize=auto;html=1;exitX=1;exitY=0.5;exitDx=0;exitDy=0;" parent="1" source="tfiWh8xOHerXuObjwz7h-124" target="tfiWh8xOHerXuObjwz7h-8" edge="1">
          <mxGeometry relative="1" as="geometry">
            <Array as="points">
              <mxPoint x="780" y="915" />
            </Array>
          </mxGeometry>
        </mxCell>
        <mxCell id="tfiWh8xOHerXuObjwz7h-8" value="&lt;font color=&quot;#ff0000&quot;&gt;&lt;span style=&quot;font-size: 14px;&quot;&gt;&lt;b&gt;y_long&lt;/b&gt;&lt;/span&gt;&lt;/font&gt;" style="text;html=1;align=center;verticalAlign=middle;resizable=0;points=[];autosize=1;strokeColor=none;fillColor=none;" parent="1" vertex="1">
          <mxGeometry x="750" y="1010" width="70" height="30" as="geometry" />
        </mxCell>
        <mxCell id="tfiWh8xOHerXuObjwz7h-9" value="" style="edgeStyle=orthogonalEdgeStyle;rounded=0;orthogonalLoop=1;jettySize=auto;html=1;entryX=0.5;entryY=0;entryDx=0;entryDy=0;" parent="1" source="tfiWh8xOHerXuObjwz7h-12" target="tfiWh8xOHerXuObjwz7h-13" edge="1">
          <mxGeometry relative="1" as="geometry" />
        </mxCell>
        <mxCell id="tfiWh8xOHerXuObjwz7h-10" value="/6" style="edgeLabel;html=1;align=center;verticalAlign=middle;resizable=0;points=[];" parent="tfiWh8xOHerXuObjwz7h-9" vertex="1" connectable="0">
          <mxGeometry x="-0.0542" y="2" relative="1" as="geometry">
            <mxPoint as="offset" />
          </mxGeometry>
        </mxCell>
        <mxCell id="tfiWh8xOHerXuObjwz7h-12" value="Counter++" style="rounded=0;whiteSpace=wrap;html=1;" parent="1" vertex="1">
          <mxGeometry x="70" y="230" width="120" height="60" as="geometry" />
        </mxCell>
        <mxCell id="tfiWh8xOHerXuObjwz7h-13" value="== 64" style="rounded=0;whiteSpace=wrap;html=1;" parent="1" vertex="1">
          <mxGeometry x="95" y="340" width="70" height="60" as="geometry" />
        </mxCell>
        <mxCell id="tfiWh8xOHerXuObjwz7h-14" value="" style="triangle;whiteSpace=wrap;html=1;direction=east;" parent="1" vertex="1">
          <mxGeometry x="70" y="270" width="20" height="20" as="geometry" />
        </mxCell>
        <mxCell id="tfiWh8xOHerXuObjwz7h-15" value="ld" style="text;html=1;strokeColor=none;fillColor=none;align=center;verticalAlign=middle;whiteSpace=wrap;rounded=0;" parent="1" vertex="1">
          <mxGeometry x="70" y="230" width="35" height="20" as="geometry" />
        </mxCell>
        <mxCell id="tfiWh8xOHerXuObjwz7h-16" value="en" style="text;html=1;strokeColor=none;fillColor=none;align=center;verticalAlign=middle;whiteSpace=wrap;rounded=0;" parent="1" vertex="1">
          <mxGeometry x="70" y="250" width="35" height="20" as="geometry" />
        </mxCell>
        <mxCell id="tfiWh8xOHerXuObjwz7h-17" value="D" style="text;html=1;strokeColor=none;fillColor=none;align=center;verticalAlign=middle;whiteSpace=wrap;rounded=0;" parent="1" vertex="1">
          <mxGeometry x="112.5" y="230" width="35" height="20" as="geometry" />
        </mxCell>
        <mxCell id="tfiWh8xOHerXuObjwz7h-19" style="edgeStyle=orthogonalEdgeStyle;rounded=0;orthogonalLoop=1;jettySize=auto;html=1;exitX=0.5;exitY=1;exitDx=0;exitDy=0;entryX=0;entryY=0.5;entryDx=0;entryDy=0;" parent="1" source="tfiWh8xOHerXuObjwz7h-13" target="tfiWh8xOHerXuObjwz7h-30" edge="1">
          <mxGeometry relative="1" as="geometry">
            <mxPoint x="130" y="450" as="targetPoint" />
            <Array as="points">
              <mxPoint x="130" y="410" />
              <mxPoint x="50" y="410" />
              <mxPoint x="50" y="480" />
            </Array>
          </mxGeometry>
        </mxCell>
        <mxCell id="tfiWh8xOHerXuObjwz7h-21" value="aa" style="text;html=1;align=center;verticalAlign=middle;resizable=0;points=[];autosize=1;strokeColor=none;fillColor=none;" parent="1" vertex="1">
          <mxGeometry x="90" y="310" width="40" height="30" as="geometry" />
        </mxCell>
        <mxCell id="tfiWh8xOHerXuObjwz7h-23" value="" style="edgeStyle=orthogonalEdgeStyle;rounded=0;orthogonalLoop=1;jettySize=auto;html=1;entryX=0.5;entryY=0;entryDx=0;entryDy=0;" parent="1" source="tfiWh8xOHerXuObjwz7h-26" target="tfiWh8xOHerXuObjwz7h-27" edge="1">
          <mxGeometry relative="1" as="geometry" />
        </mxCell>
        <mxCell id="tfiWh8xOHerXuObjwz7h-24" value="/7" style="edgeLabel;html=1;align=center;verticalAlign=middle;resizable=0;points=[];" parent="tfiWh8xOHerXuObjwz7h-23" vertex="1" connectable="0">
          <mxGeometry x="-0.0542" y="2" relative="1" as="geometry">
            <mxPoint as="offset" />
          </mxGeometry>
        </mxCell>
        <mxCell id="tfiWh8xOHerXuObjwz7h-25" value="/4" style="edgeLabel;html=1;align=center;verticalAlign=middle;resizable=0;points=[];" parent="tfiWh8xOHerXuObjwz7h-23" vertex="1" connectable="0">
          <mxGeometry x="-0.05" y="1" relative="1" as="geometry">
            <mxPoint as="offset" />
          </mxGeometry>
        </mxCell>
        <mxCell id="tfiWh8xOHerXuObjwz7h-26" value="Counter--" style="rounded=0;whiteSpace=wrap;html=1;" parent="1" vertex="1">
          <mxGeometry x="70" y="450" width="120" height="60" as="geometry" />
        </mxCell>
        <mxCell id="tfiWh8xOHerXuObjwz7h-51" style="edgeStyle=orthogonalEdgeStyle;rounded=0;orthogonalLoop=1;jettySize=auto;html=1;exitX=0.5;exitY=0;exitDx=0;exitDy=0;entryX=1;entryY=0.5;entryDx=0;entryDy=0;" parent="1" source="tfiWh8xOHerXuObjwz7h-38" target="tfiWh8xOHerXuObjwz7h-27" edge="1">
          <mxGeometry relative="1" as="geometry">
            <mxPoint x="130" y="820" as="sourcePoint" />
            <Array as="points">
              <mxPoint x="130" y="820" />
              <mxPoint x="240" y="820" />
              <mxPoint x="240" y="590" />
            </Array>
          </mxGeometry>
        </mxCell>
        <mxCell id="tfiWh8xOHerXuObjwz7h-27" value="&lt;b&gt;a &amp;gt; b&lt;/b&gt;" style="rounded=0;whiteSpace=wrap;html=1;" parent="1" vertex="1">
          <mxGeometry x="95" y="560" width="70" height="60" as="geometry" />
        </mxCell>
        <mxCell id="tfiWh8xOHerXuObjwz7h-28" value="" style="triangle;whiteSpace=wrap;html=1;direction=east;" parent="1" vertex="1">
          <mxGeometry x="70" y="490" width="20" height="20" as="geometry" />
        </mxCell>
        <mxCell id="tfiWh8xOHerXuObjwz7h-54" style="edgeStyle=orthogonalEdgeStyle;rounded=0;orthogonalLoop=1;jettySize=auto;html=1;" parent="1" target="tfiWh8xOHerXuObjwz7h-29" edge="1">
          <mxGeometry relative="1" as="geometry">
            <mxPoint x="50" y="660" as="sourcePoint" />
            <Array as="points">
              <mxPoint x="50" y="650" />
              <mxPoint x="40" y="650" />
              <mxPoint x="40" y="460" />
            </Array>
          </mxGeometry>
        </mxCell>
        <mxCell id="tfiWh8xOHerXuObjwz7h-29" value="ld" style="text;html=1;strokeColor=none;fillColor=none;align=center;verticalAlign=middle;whiteSpace=wrap;rounded=0;" parent="1" vertex="1">
          <mxGeometry x="70" y="450" width="35" height="20" as="geometry" />
        </mxCell>
        <mxCell id="tfiWh8xOHerXuObjwz7h-30" value="en" style="text;html=1;strokeColor=none;fillColor=none;align=center;verticalAlign=middle;whiteSpace=wrap;rounded=0;" parent="1" vertex="1">
          <mxGeometry x="70" y="470" width="35" height="20" as="geometry" />
        </mxCell>
        <mxCell id="tfiWh8xOHerXuObjwz7h-31" value="D" style="text;html=1;strokeColor=none;fillColor=none;align=center;verticalAlign=middle;whiteSpace=wrap;rounded=0;" parent="1" vertex="1">
          <mxGeometry x="112.5" y="450" width="35" height="20" as="geometry" />
        </mxCell>
        <mxCell id="tfiWh8xOHerXuObjwz7h-32" style="edgeStyle=orthogonalEdgeStyle;rounded=0;orthogonalLoop=1;jettySize=auto;html=1;exitX=0.5;exitY=1;exitDx=0;exitDy=0;entryX=0;entryY=0.5;entryDx=0;entryDy=0;" parent="1" source="tfiWh8xOHerXuObjwz7h-27" target="tfiWh8xOHerXuObjwz7h-41" edge="1">
          <mxGeometry relative="1" as="geometry">
            <mxPoint x="130" y="670" as="targetPoint" />
            <Array as="points">
              <mxPoint x="130" y="650" />
              <mxPoint x="50" y="650" />
              <mxPoint x="50" y="760" />
            </Array>
          </mxGeometry>
        </mxCell>
        <mxCell id="tfiWh8xOHerXuObjwz7h-33" value="jj" style="text;html=1;align=center;verticalAlign=middle;resizable=0;points=[];autosize=1;strokeColor=none;fillColor=none;" parent="1" vertex="1">
          <mxGeometry x="95" y="520" width="30" height="30" as="geometry" />
        </mxCell>
        <mxCell id="tfiWh8xOHerXuObjwz7h-34" value="" style="edgeStyle=orthogonalEdgeStyle;rounded=0;orthogonalLoop=1;jettySize=auto;html=1;entryX=0.5;entryY=0;entryDx=0;entryDy=0;" parent="1" source="tfiWh8xOHerXuObjwz7h-37" target="tfiWh8xOHerXuObjwz7h-38" edge="1">
          <mxGeometry relative="1" as="geometry" />
        </mxCell>
        <mxCell id="tfiWh8xOHerXuObjwz7h-35" value="/7" style="edgeLabel;html=1;align=center;verticalAlign=middle;resizable=0;points=[];" parent="tfiWh8xOHerXuObjwz7h-34" vertex="1" connectable="0">
          <mxGeometry x="-0.0542" y="2" relative="1" as="geometry">
            <mxPoint as="offset" />
          </mxGeometry>
        </mxCell>
        <mxCell id="tfiWh8xOHerXuObjwz7h-36" value="/4" style="edgeLabel;html=1;align=center;verticalAlign=middle;resizable=0;points=[];" parent="tfiWh8xOHerXuObjwz7h-34" vertex="1" connectable="0">
          <mxGeometry x="-0.05" y="1" relative="1" as="geometry">
            <mxPoint as="offset" />
          </mxGeometry>
        </mxCell>
        <mxCell id="tfiWh8xOHerXuObjwz7h-37" value="Counter++" style="rounded=0;whiteSpace=wrap;html=1;" parent="1" vertex="1">
          <mxGeometry x="70" y="730" width="120" height="60" as="geometry" />
        </mxCell>
        <mxCell id="tfiWh8xOHerXuObjwz7h-38" value="&lt;b&gt;== 9&lt;/b&gt;" style="rounded=0;whiteSpace=wrap;html=1;" parent="1" vertex="1">
          <mxGeometry x="95" y="840" width="70" height="60" as="geometry" />
        </mxCell>
        <mxCell id="tfiWh8xOHerXuObjwz7h-39" value="" style="triangle;whiteSpace=wrap;html=1;direction=east;" parent="1" vertex="1">
          <mxGeometry x="70" y="770" width="20" height="20" as="geometry" />
        </mxCell>
        <mxCell id="tfiWh8xOHerXuObjwz7h-40" value="ld" style="text;html=1;strokeColor=none;fillColor=none;align=center;verticalAlign=middle;whiteSpace=wrap;rounded=0;" parent="1" vertex="1">
          <mxGeometry x="70" y="730" width="35" height="20" as="geometry" />
        </mxCell>
        <mxCell id="tfiWh8xOHerXuObjwz7h-41" value="en" style="text;html=1;strokeColor=none;fillColor=none;align=center;verticalAlign=middle;whiteSpace=wrap;rounded=0;" parent="1" vertex="1">
          <mxGeometry x="70" y="750" width="35" height="20" as="geometry" />
        </mxCell>
        <mxCell id="tfiWh8xOHerXuObjwz7h-42" value="D" style="text;html=1;strokeColor=none;fillColor=none;align=center;verticalAlign=middle;whiteSpace=wrap;rounded=0;" parent="1" vertex="1">
          <mxGeometry x="112.5" y="730" width="35" height="20" as="geometry" />
        </mxCell>
        <mxCell id="tfiWh8xOHerXuObjwz7h-43" style="edgeStyle=orthogonalEdgeStyle;rounded=0;orthogonalLoop=1;jettySize=auto;html=1;exitX=0.5;exitY=1;exitDx=0;exitDy=0;entryX=0;entryY=0.5;entryDx=0;entryDy=0;" parent="1" source="tfiWh8xOHerXuObjwz7h-38" target="tfiWh8xOHerXuObjwz7h-40" edge="1">
          <mxGeometry relative="1" as="geometry">
            <mxPoint x="130" y="950" as="targetPoint" />
            <Array as="points">
              <mxPoint x="130" y="920" />
              <mxPoint x="30" y="920" />
              <mxPoint x="30" y="740" />
            </Array>
          </mxGeometry>
        </mxCell>
        <mxCell id="tfiWh8xOHerXuObjwz7h-44" value="ii" style="text;html=1;align=center;verticalAlign=middle;resizable=0;points=[];autosize=1;strokeColor=none;fillColor=none;" parent="1" vertex="1">
          <mxGeometry x="95" y="798" width="30" height="30" as="geometry" />
        </mxCell>
        <mxCell id="tfiWh8xOHerXuObjwz7h-49" style="edgeStyle=orthogonalEdgeStyle;rounded=0;orthogonalLoop=1;jettySize=auto;html=1;entryX=0.5;entryY=0;entryDx=0;entryDy=0;" parent="1" source="tfiWh8xOHerXuObjwz7h-47" target="tfiWh8xOHerXuObjwz7h-42" edge="1">
          <mxGeometry relative="1" as="geometry" />
        </mxCell>
        <mxCell id="tfiWh8xOHerXuObjwz7h-50" value="/4" style="edgeLabel;html=1;align=center;verticalAlign=middle;resizable=0;points=[];" parent="tfiWh8xOHerXuObjwz7h-49" vertex="1" connectable="0">
          <mxGeometry x="-0.1111" relative="1" as="geometry">
            <mxPoint as="offset" />
          </mxGeometry>
        </mxCell>
        <mxCell id="tfiWh8xOHerXuObjwz7h-47" value="0" style="text;html=1;align=center;verticalAlign=middle;resizable=0;points=[];autosize=1;strokeColor=none;fillColor=none;" parent="1" vertex="1">
          <mxGeometry x="115.5" y="660" width="30" height="30" as="geometry" />
        </mxCell>
        <mxCell id="tfiWh8xOHerXuObjwz7h-52" value="a" style="text;html=1;strokeColor=none;fillColor=none;align=center;verticalAlign=middle;whiteSpace=wrap;rounded=0;" parent="1" vertex="1">
          <mxGeometry x="115" y="560" width="30" height="30" as="geometry" />
        </mxCell>
        <mxCell id="tfiWh8xOHerXuObjwz7h-53" value="b" style="text;html=1;strokeColor=none;fillColor=none;align=center;verticalAlign=middle;whiteSpace=wrap;rounded=0;" parent="1" vertex="1">
          <mxGeometry x="140" y="575" width="30" height="30" as="geometry" />
        </mxCell>
        <mxCell id="tfiWh8xOHerXuObjwz7h-140" style="edgeStyle=orthogonalEdgeStyle;rounded=0;orthogonalLoop=1;jettySize=auto;html=1;entryX=0.25;entryY=0;entryDx=0;entryDy=0;" parent="1" source="tfiWh8xOHerXuObjwz7h-59" target="tfiWh8xOHerXuObjwz7h-138" edge="1">
          <mxGeometry relative="1" as="geometry" />
        </mxCell>
        <mxCell id="tfiWh8xOHerXuObjwz7h-141" value="/6" style="edgeLabel;html=1;align=center;verticalAlign=middle;resizable=0;points=[];" parent="tfiWh8xOHerXuObjwz7h-140" vertex="1" connectable="0">
          <mxGeometry x="-0.5942" relative="1" as="geometry">
            <mxPoint as="offset" />
          </mxGeometry>
        </mxCell>
        <mxCell id="tfiWh8xOHerXuObjwz7h-59" value="Counter++" style="rounded=0;whiteSpace=wrap;html=1;" parent="1" vertex="1">
          <mxGeometry x="280" y="749" width="120" height="60" as="geometry" />
        </mxCell>
        <mxCell id="tfiWh8xOHerXuObjwz7h-60" value="" style="triangle;whiteSpace=wrap;html=1;direction=east;" parent="1" vertex="1">
          <mxGeometry x="280" y="789" width="20" height="20" as="geometry" />
        </mxCell>
        <mxCell id="tfiWh8xOHerXuObjwz7h-61" value="ld" style="text;html=1;strokeColor=none;fillColor=none;align=center;verticalAlign=middle;whiteSpace=wrap;rounded=0;" parent="1" vertex="1">
          <mxGeometry x="280" y="749" width="35" height="20" as="geometry" />
        </mxCell>
        <mxCell id="tfiWh8xOHerXuObjwz7h-68" style="edgeStyle=orthogonalEdgeStyle;rounded=0;orthogonalLoop=1;jettySize=auto;html=1;exitX=0;exitY=0.25;exitDx=0;exitDy=0;entryX=0;entryY=0.25;entryDx=0;entryDy=0;" parent="1" target="tfiWh8xOHerXuObjwz7h-62" edge="1">
          <mxGeometry relative="1" as="geometry">
            <mxPoint x="130" y="920" as="sourcePoint" />
            <Array as="points">
              <mxPoint x="250" y="920" />
              <mxPoint x="250" y="774" />
            </Array>
          </mxGeometry>
        </mxCell>
        <mxCell id="tfiWh8xOHerXuObjwz7h-62" value="en" style="text;html=1;strokeColor=none;fillColor=none;align=center;verticalAlign=middle;whiteSpace=wrap;rounded=0;" parent="1" vertex="1">
          <mxGeometry x="280" y="769" width="35" height="20" as="geometry" />
        </mxCell>
        <mxCell id="tfiWh8xOHerXuObjwz7h-63" value="D" style="text;html=1;strokeColor=none;fillColor=none;align=center;verticalAlign=middle;whiteSpace=wrap;rounded=0;" parent="1" vertex="1">
          <mxGeometry x="322.5" y="749" width="35" height="20" as="geometry" />
        </mxCell>
        <mxCell id="tfiWh8xOHerXuObjwz7h-67" value="/6" style="edgeStyle=orthogonalEdgeStyle;rounded=0;orthogonalLoop=1;jettySize=auto;html=1;entryX=0.5;entryY=0;entryDx=0;entryDy=0;" parent="1" source="tfiWh8xOHerXuObjwz7h-65" target="tfiWh8xOHerXuObjwz7h-63" edge="1">
          <mxGeometry relative="1" as="geometry" />
        </mxCell>
        <mxCell id="tfiWh8xOHerXuObjwz7h-65" value="0" style="text;html=1;align=center;verticalAlign=middle;resizable=0;points=[];autosize=1;strokeColor=none;fillColor=none;" parent="1" vertex="1">
          <mxGeometry x="324.5" y="680" width="30" height="30" as="geometry" />
        </mxCell>
        <mxCell id="tfiWh8xOHerXuObjwz7h-74" style="edgeStyle=orthogonalEdgeStyle;rounded=0;orthogonalLoop=1;jettySize=auto;html=1;entryX=0.5;entryY=0;entryDx=0;entryDy=0;" parent="1" source="tfiWh8xOHerXuObjwz7h-73" target="tfiWh8xOHerXuObjwz7h-17" edge="1">
          <mxGeometry relative="1" as="geometry" />
        </mxCell>
        <mxCell id="tfiWh8xOHerXuObjwz7h-75" value="/6" style="edgeLabel;html=1;align=center;verticalAlign=middle;resizable=0;points=[];" parent="tfiWh8xOHerXuObjwz7h-74" vertex="1" connectable="0">
          <mxGeometry x="0.4828" y="-3" relative="1" as="geometry">
            <mxPoint as="offset" />
          </mxGeometry>
        </mxCell>
        <mxCell id="tfiWh8xOHerXuObjwz7h-73" value="0" style="text;html=1;align=center;verticalAlign=middle;resizable=0;points=[];autosize=1;strokeColor=none;fillColor=none;" parent="1" vertex="1">
          <mxGeometry x="115" y="178" width="30" height="30" as="geometry" />
        </mxCell>
        <mxCell id="tfiWh8xOHerXuObjwz7h-76" style="edgeStyle=orthogonalEdgeStyle;rounded=0;orthogonalLoop=1;jettySize=auto;html=1;exitX=1;exitY=1;exitDx=0;exitDy=0;exitPerimeter=0;" parent="1" source="tfiWh8xOHerXuObjwz7h-21" target="tfiWh8xOHerXuObjwz7h-15" edge="1">
          <mxGeometry relative="1" as="geometry">
            <Array as="points">
              <mxPoint x="130" y="310" />
              <mxPoint x="40" y="310" />
              <mxPoint x="40" y="240" />
            </Array>
          </mxGeometry>
        </mxCell>
        <mxCell id="tfiWh8xOHerXuObjwz7h-77" value="galois_matrix_&lt;br&gt;multiply_row_col" style="rounded=0;whiteSpace=wrap;html=1;" parent="1" vertex="1">
          <mxGeometry x="380" y="230" width="120" height="120" as="geometry" />
        </mxCell>
        <mxCell id="tfiWh8xOHerXuObjwz7h-78" value="ST" style="text;html=1;strokeColor=none;fillColor=none;align=center;verticalAlign=middle;whiteSpace=wrap;rounded=0;" parent="1" vertex="1">
          <mxGeometry x="380" y="230" width="30" height="30" as="geometry" />
        </mxCell>
        <mxCell id="tfiWh8xOHerXuObjwz7h-79" value="P" style="text;html=1;strokeColor=none;fillColor=none;align=center;verticalAlign=middle;whiteSpace=wrap;rounded=0;" parent="1" vertex="1">
          <mxGeometry x="425" y="230" width="30" height="30" as="geometry" />
        </mxCell>
        <mxCell id="tfiWh8xOHerXuObjwz7h-80" value="result" style="text;html=1;strokeColor=none;fillColor=none;align=center;verticalAlign=middle;whiteSpace=wrap;rounded=0;" parent="1" vertex="1">
          <mxGeometry x="410" y="320" width="60" height="30" as="geometry" />
        </mxCell>
        <mxCell id="tfiWh8xOHerXuObjwz7h-81" value="S" style="text;html=1;strokeColor=none;fillColor=none;align=center;verticalAlign=middle;whiteSpace=wrap;rounded=0;" parent="1" vertex="1">
          <mxGeometry x="470" y="230" width="30" height="30" as="geometry" />
        </mxCell>
        <mxCell id="tfiWh8xOHerXuObjwz7h-91" value="galois_matrix_&lt;br&gt;multiply_row_col" style="rounded=0;whiteSpace=wrap;html=1;" parent="1" vertex="1">
          <mxGeometry x="600" y="230" width="120" height="120" as="geometry" />
        </mxCell>
        <mxCell id="tfiWh8xOHerXuObjwz7h-96" style="edgeStyle=orthogonalEdgeStyle;rounded=0;orthogonalLoop=1;jettySize=auto;html=1;entryX=0.5;entryY=0;entryDx=0;entryDy=0;" parent="1" source="tfiWh8xOHerXuObjwz7h-92" target="tfiWh8xOHerXuObjwz7h-81" edge="1">
          <mxGeometry relative="1" as="geometry">
            <Array as="points">
              <mxPoint x="615" y="210" />
              <mxPoint x="485" y="210" />
            </Array>
          </mxGeometry>
        </mxCell>
        <mxCell id="tfiWh8xOHerXuObjwz7h-92" value="ST" style="text;html=1;strokeColor=none;fillColor=none;align=center;verticalAlign=middle;whiteSpace=wrap;rounded=0;" parent="1" vertex="1">
          <mxGeometry x="600" y="230" width="30" height="30" as="geometry" />
        </mxCell>
        <mxCell id="tfiWh8xOHerXuObjwz7h-97" style="edgeStyle=orthogonalEdgeStyle;rounded=0;orthogonalLoop=1;jettySize=auto;html=1;entryX=0.5;entryY=0;entryDx=0;entryDy=0;" parent="1" source="tfiWh8xOHerXuObjwz7h-93" target="tfiWh8xOHerXuObjwz7h-79" edge="1">
          <mxGeometry relative="1" as="geometry">
            <Array as="points">
              <mxPoint x="660" y="190" />
              <mxPoint x="440" y="190" />
            </Array>
          </mxGeometry>
        </mxCell>
        <mxCell id="tfiWh8xOHerXuObjwz7h-93" value="P" style="text;html=1;strokeColor=none;fillColor=none;align=center;verticalAlign=middle;whiteSpace=wrap;rounded=0;" parent="1" vertex="1">
          <mxGeometry x="645" y="230" width="30" height="30" as="geometry" />
        </mxCell>
        <mxCell id="tfiWh8xOHerXuObjwz7h-117" style="edgeStyle=orthogonalEdgeStyle;rounded=0;orthogonalLoop=1;jettySize=auto;html=1;entryX=0.75;entryY=0;entryDx=0;entryDy=0;" parent="1" source="tfiWh8xOHerXuObjwz7h-94" target="tfiWh8xOHerXuObjwz7h-114" edge="1">
          <mxGeometry relative="1" as="geometry" />
        </mxCell>
        <mxCell id="tfiWh8xOHerXuObjwz7h-118" value="/4" style="edgeLabel;html=1;align=center;verticalAlign=middle;resizable=0;points=[];" parent="tfiWh8xOHerXuObjwz7h-117" vertex="1" connectable="0">
          <mxGeometry x="0.0746" y="-1" relative="1" as="geometry">
            <mxPoint as="offset" />
          </mxGeometry>
        </mxCell>
        <mxCell id="tfiWh8xOHerXuObjwz7h-94" value="result" style="text;html=1;strokeColor=none;fillColor=none;align=center;verticalAlign=middle;whiteSpace=wrap;rounded=0;" parent="1" vertex="1">
          <mxGeometry x="630" y="320" width="60" height="30" as="geometry" />
        </mxCell>
        <mxCell id="tfiWh8xOHerXuObjwz7h-98" style="edgeStyle=orthogonalEdgeStyle;rounded=0;orthogonalLoop=1;jettySize=auto;html=1;entryX=0.5;entryY=0;entryDx=0;entryDy=0;" parent="1" source="tfiWh8xOHerXuObjwz7h-95" target="tfiWh8xOHerXuObjwz7h-78" edge="1">
          <mxGeometry relative="1" as="geometry">
            <Array as="points">
              <mxPoint x="705" y="170" />
              <mxPoint x="395" y="170" />
            </Array>
          </mxGeometry>
        </mxCell>
        <mxCell id="tfiWh8xOHerXuObjwz7h-95" value="S" style="text;html=1;strokeColor=none;fillColor=none;align=center;verticalAlign=middle;whiteSpace=wrap;rounded=0;" parent="1" vertex="1">
          <mxGeometry x="690" y="230" width="30" height="30" as="geometry" />
        </mxCell>
        <mxCell id="tfiWh8xOHerXuObjwz7h-174" style="edgeStyle=orthogonalEdgeStyle;rounded=0;orthogonalLoop=1;jettySize=auto;html=1;entryX=0.25;entryY=0;entryDx=0;entryDy=0;" parent="1" source="tfiWh8xOHerXuObjwz7h-99" target="tfiWh8xOHerXuObjwz7h-171" edge="1">
          <mxGeometry relative="1" as="geometry">
            <mxPoint x="520" y="840" as="targetPoint" />
            <Array as="points">
              <mxPoint x="580" y="550" />
              <mxPoint x="490" y="550" />
              <mxPoint x="490" y="770" />
              <mxPoint x="520" y="770" />
              <mxPoint x="520" y="850" />
            </Array>
          </mxGeometry>
        </mxCell>
        <mxCell id="tfiWh8xOHerXuObjwz7h-175" value="/4" style="edgeLabel;html=1;align=center;verticalAlign=middle;resizable=0;points=[];" parent="tfiWh8xOHerXuObjwz7h-174" vertex="1" connectable="0">
          <mxGeometry x="-0.1064" y="-2" relative="1" as="geometry">
            <mxPoint as="offset" />
          </mxGeometry>
        </mxCell>
        <mxCell id="tfiWh8xOHerXuObjwz7h-99" value="" style="shape=trapezoid;perimeter=trapezoidPerimeter;whiteSpace=wrap;html=1;fixedSize=1;direction=west;" parent="1" vertex="1">
          <mxGeometry x="520" y="458" width="120" height="40" as="geometry" />
        </mxCell>
        <mxCell id="tfiWh8xOHerXuObjwz7h-103" style="edgeStyle=orthogonalEdgeStyle;rounded=0;orthogonalLoop=1;jettySize=auto;html=1;entryX=1;entryY=0.5;entryDx=0;entryDy=0;" parent="1" source="tfiWh8xOHerXuObjwz7h-100" target="tfiWh8xOHerXuObjwz7h-99" edge="1">
          <mxGeometry relative="1" as="geometry" />
        </mxCell>
        <mxCell id="tfiWh8xOHerXuObjwz7h-100" value="&lt;b&gt;a=b&lt;/b&gt;" style="rounded=0;whiteSpace=wrap;html=1;" parent="1" vertex="1">
          <mxGeometry x="375" y="448" width="70" height="60" as="geometry" />
        </mxCell>
        <mxCell id="tfiWh8xOHerXuObjwz7h-101" value="ii" style="text;html=1;align=center;verticalAlign=middle;resizable=0;points=[];autosize=1;strokeColor=none;fillColor=none;" parent="1" vertex="1">
          <mxGeometry x="275" y="428" width="30" height="30" as="geometry" />
        </mxCell>
        <mxCell id="tfiWh8xOHerXuObjwz7h-104" style="edgeStyle=orthogonalEdgeStyle;rounded=0;orthogonalLoop=1;jettySize=auto;html=1;entryX=0;entryY=0.75;entryDx=0;entryDy=0;" parent="1" source="tfiWh8xOHerXuObjwz7h-102" target="tfiWh8xOHerXuObjwz7h-100" edge="1">
          <mxGeometry relative="1" as="geometry" />
        </mxCell>
        <mxCell id="tfiWh8xOHerXuObjwz7h-109" value="/4" style="edgeLabel;html=1;align=center;verticalAlign=middle;resizable=0;points=[];" parent="tfiWh8xOHerXuObjwz7h-104" vertex="1" connectable="0">
          <mxGeometry x="-0.5278" y="2" relative="1" as="geometry">
            <mxPoint as="offset" />
          </mxGeometry>
        </mxCell>
        <mxCell id="tfiWh8xOHerXuObjwz7h-102" value="jj" style="text;html=1;align=center;verticalAlign=middle;resizable=0;points=[];autosize=1;strokeColor=none;fillColor=none;" parent="1" vertex="1">
          <mxGeometry x="275" y="480" width="30" height="30" as="geometry" />
        </mxCell>
        <mxCell id="tfiWh8xOHerXuObjwz7h-105" style="edgeStyle=orthogonalEdgeStyle;rounded=0;orthogonalLoop=1;jettySize=auto;html=1;entryX=0.014;entryY=0.4;entryDx=0;entryDy=0;entryPerimeter=0;" parent="1" source="tfiWh8xOHerXuObjwz7h-101" target="tfiWh8xOHerXuObjwz7h-100" edge="1">
          <mxGeometry relative="1" as="geometry" />
        </mxCell>
        <mxCell id="tfiWh8xOHerXuObjwz7h-108" value="/4" style="edgeLabel;html=1;align=center;verticalAlign=middle;resizable=0;points=[];" parent="tfiWh8xOHerXuObjwz7h-105" vertex="1" connectable="0">
          <mxGeometry x="-0.6199" y="4" relative="1" as="geometry">
            <mxPoint as="offset" />
          </mxGeometry>
        </mxCell>
        <mxCell id="tfiWh8xOHerXuObjwz7h-106" value="a" style="text;html=1;strokeColor=none;fillColor=none;align=center;verticalAlign=middle;whiteSpace=wrap;rounded=0;" parent="1" vertex="1">
          <mxGeometry x="375" y="450" width="30" height="30" as="geometry" />
        </mxCell>
        <mxCell id="tfiWh8xOHerXuObjwz7h-107" value="b" style="text;html=1;strokeColor=none;fillColor=none;align=center;verticalAlign=middle;whiteSpace=wrap;rounded=0;" parent="1" vertex="1">
          <mxGeometry x="375" y="478" width="30" height="30" as="geometry" />
        </mxCell>
        <mxCell id="tfiWh8xOHerXuObjwz7h-110" value="1" style="text;html=1;align=center;verticalAlign=middle;resizable=0;points=[];autosize=1;strokeColor=none;fillColor=none;" parent="1" vertex="1">
          <mxGeometry x="540" y="463" width="30" height="30" as="geometry" />
        </mxCell>
        <mxCell id="tfiWh8xOHerXuObjwz7h-111" value="0" style="text;html=1;align=center;verticalAlign=middle;resizable=0;points=[];autosize=1;strokeColor=none;fillColor=none;" parent="1" vertex="1">
          <mxGeometry x="590" y="463" width="30" height="30" as="geometry" />
        </mxCell>
        <mxCell id="tfiWh8xOHerXuObjwz7h-112" style="edgeStyle=orthogonalEdgeStyle;rounded=0;orthogonalLoop=1;jettySize=auto;html=1;entryX=0.533;entryY=-0.167;entryDx=0;entryDy=0;entryPerimeter=0;" parent="1" source="tfiWh8xOHerXuObjwz7h-77" target="tfiWh8xOHerXuObjwz7h-110" edge="1">
          <mxGeometry relative="1" as="geometry">
            <Array as="points">
              <mxPoint x="440" y="380" />
              <mxPoint x="556" y="380" />
            </Array>
          </mxGeometry>
        </mxCell>
        <mxCell id="tfiWh8xOHerXuObjwz7h-113" value="/4" style="edgeLabel;html=1;align=center;verticalAlign=middle;resizable=0;points=[];" parent="tfiWh8xOHerXuObjwz7h-112" vertex="1" connectable="0">
          <mxGeometry x="-0.7946" relative="1" as="geometry">
            <mxPoint as="offset" />
          </mxGeometry>
        </mxCell>
        <mxCell id="tfiWh8xOHerXuObjwz7h-116" style="edgeStyle=orthogonalEdgeStyle;rounded=0;orthogonalLoop=1;jettySize=auto;html=1;exitX=0.5;exitY=1;exitDx=0;exitDy=0;entryX=0.25;entryY=0;entryDx=0;entryDy=0;" parent="1" source="tfiWh8xOHerXuObjwz7h-80" target="tfiWh8xOHerXuObjwz7h-114" edge="1">
          <mxGeometry relative="1" as="geometry" />
        </mxCell>
        <mxCell id="tfiWh8xOHerXuObjwz7h-114" value="&lt;b&gt;XOR&lt;/b&gt;" style="rounded=0;whiteSpace=wrap;html=1;" parent="1" vertex="1">
          <mxGeometry x="580" y="408" width="50" height="20" as="geometry" />
        </mxCell>
        <mxCell id="tfiWh8xOHerXuObjwz7h-119" style="edgeStyle=orthogonalEdgeStyle;rounded=0;orthogonalLoop=1;jettySize=auto;html=1;entryX=0.3;entryY=0.975;entryDx=0;entryDy=0;entryPerimeter=0;" parent="1" source="tfiWh8xOHerXuObjwz7h-114" target="tfiWh8xOHerXuObjwz7h-99" edge="1">
          <mxGeometry relative="1" as="geometry" />
        </mxCell>
        <mxCell id="tfiWh8xOHerXuObjwz7h-120" value="&lt;br&gt;&lt;br&gt;Replace at Index" style="rounded=0;whiteSpace=wrap;html=1;" parent="1" vertex="1">
          <mxGeometry x="540" y="900" width="165" height="130" as="geometry" />
        </mxCell>
        <mxCell id="tfiWh8xOHerXuObjwz7h-177" style="edgeStyle=orthogonalEdgeStyle;rounded=0;orthogonalLoop=1;jettySize=auto;html=1;exitX=0;exitY=0.5;exitDx=0;exitDy=0;" parent="1" source="tfiWh8xOHerXuObjwz7h-162" target="tfiWh8xOHerXuObjwz7h-121" edge="1">
          <mxGeometry relative="1" as="geometry">
            <Array as="points">
              <mxPoint x="500" y="695" />
              <mxPoint x="500" y="915" />
            </Array>
          </mxGeometry>
        </mxCell>
        <mxCell id="tfiWh8xOHerXuObjwz7h-121" value="din" style="text;html=1;strokeColor=none;fillColor=none;align=center;verticalAlign=middle;whiteSpace=wrap;rounded=0;" parent="1" vertex="1">
          <mxGeometry x="540" y="900" width="60" height="30" as="geometry" />
        </mxCell>
        <mxCell id="tfiWh8xOHerXuObjwz7h-178" style="edgeStyle=orthogonalEdgeStyle;rounded=0;orthogonalLoop=1;jettySize=auto;html=1;entryX=0.5;entryY=0;entryDx=0;entryDy=0;" parent="1" source="tfiWh8xOHerXuObjwz7h-124" target="tfiWh8xOHerXuObjwz7h-156" edge="1">
          <mxGeometry relative="1" as="geometry">
            <Array as="points">
              <mxPoint x="810" y="915" />
              <mxPoint x="810" y="460" />
              <mxPoint x="730" y="460" />
            </Array>
          </mxGeometry>
        </mxCell>
        <mxCell id="tfiWh8xOHerXuObjwz7h-179" value="/512" style="edgeLabel;html=1;align=center;verticalAlign=middle;resizable=0;points=[];" parent="tfiWh8xOHerXuObjwz7h-178" vertex="1" connectable="0">
          <mxGeometry x="-0.8303" relative="1" as="geometry">
            <mxPoint as="offset" />
          </mxGeometry>
        </mxCell>
        <mxCell id="tfiWh8xOHerXuObjwz7h-124" value="dout" style="text;html=1;strokeColor=none;fillColor=none;align=center;verticalAlign=middle;whiteSpace=wrap;rounded=0;" parent="1" vertex="1">
          <mxGeometry x="645" y="900" width="60" height="30" as="geometry" />
        </mxCell>
        <mxCell id="tfiWh8xOHerXuObjwz7h-125" value="new_data" style="text;html=1;strokeColor=none;fillColor=none;align=center;verticalAlign=middle;whiteSpace=wrap;rounded=0;" parent="1" vertex="1">
          <mxGeometry x="540" y="930" width="60" height="30" as="geometry" />
        </mxCell>
        <mxCell id="tfiWh8xOHerXuObjwz7h-169" style="edgeStyle=orthogonalEdgeStyle;rounded=0;orthogonalLoop=1;jettySize=auto;html=1;entryX=0.5;entryY=1;entryDx=0;entryDy=0;" parent="1" source="tfiWh8xOHerXuObjwz7h-126" target="tfiWh8xOHerXuObjwz7h-139" edge="1">
          <mxGeometry relative="1" as="geometry">
            <Array as="points">
              <mxPoint x="470" y="995" />
              <mxPoint x="470" y="1050" />
              <mxPoint x="390" y="1050" />
            </Array>
          </mxGeometry>
        </mxCell>
        <mxCell id="tfiWh8xOHerXuObjwz7h-126" value="start_index" style="text;html=1;strokeColor=none;fillColor=none;align=center;verticalAlign=middle;whiteSpace=wrap;rounded=0;" parent="1" vertex="1">
          <mxGeometry x="540" y="980" width="60" height="30" as="geometry" />
        </mxCell>
        <mxCell id="tfiWh8xOHerXuObjwz7h-146" style="edgeStyle=orthogonalEdgeStyle;rounded=0;orthogonalLoop=1;jettySize=auto;html=1;entryX=0.25;entryY=0;entryDx=0;entryDy=0;" parent="1" source="tfiWh8xOHerXuObjwz7h-138" target="tfiWh8xOHerXuObjwz7h-139" edge="1">
          <mxGeometry relative="1" as="geometry" />
        </mxCell>
        <mxCell id="tfiWh8xOHerXuObjwz7h-147" value="/7" style="edgeLabel;html=1;align=center;verticalAlign=middle;resizable=0;points=[];" parent="tfiWh8xOHerXuObjwz7h-146" vertex="1" connectable="0">
          <mxGeometry x="0.0069" y="3" relative="1" as="geometry">
            <mxPoint as="offset" />
          </mxGeometry>
        </mxCell>
        <mxCell id="tfiWh8xOHerXuObjwz7h-138" value="&lt;b&gt;addr&lt;/b&gt;" style="rounded=0;whiteSpace=wrap;html=1;" parent="1" vertex="1">
          <mxGeometry x="304.5" y="860" width="70" height="60" as="geometry" />
        </mxCell>
        <mxCell id="tfiWh8xOHerXuObjwz7h-139" value="&lt;b&gt;multiply&lt;/b&gt;" style="rounded=0;whiteSpace=wrap;html=1;" parent="1" vertex="1">
          <mxGeometry x="354.5" y="960" width="70" height="60" as="geometry" />
        </mxCell>
        <mxCell id="tfiWh8xOHerXuObjwz7h-142" value="l" style="text;html=1;align=center;verticalAlign=middle;resizable=0;points=[];autosize=1;strokeColor=none;fillColor=none;" parent="1" vertex="1">
          <mxGeometry x="294.5" y="810" width="30" height="30" as="geometry" />
        </mxCell>
        <mxCell id="tfiWh8xOHerXuObjwz7h-144" style="edgeStyle=orthogonalEdgeStyle;rounded=0;orthogonalLoop=1;jettySize=auto;html=1;" parent="1" source="tfiWh8xOHerXuObjwz7h-143" edge="1">
          <mxGeometry relative="1" as="geometry">
            <mxPoint x="350" y="860" as="targetPoint" />
            <Array as="points">
              <mxPoint x="350" y="830" />
            </Array>
          </mxGeometry>
        </mxCell>
        <mxCell id="tfiWh8xOHerXuObjwz7h-145" value="/6" style="edgeLabel;html=1;align=center;verticalAlign=middle;resizable=0;points=[];" parent="tfiWh8xOHerXuObjwz7h-144" vertex="1" connectable="0">
          <mxGeometry x="-0.4884" y="-1" relative="1" as="geometry">
            <mxPoint as="offset" />
          </mxGeometry>
        </mxCell>
        <mxCell id="tfiWh8xOHerXuObjwz7h-143" value="aa" style="text;html=1;align=center;verticalAlign=middle;resizable=0;points=[];autosize=1;strokeColor=none;fillColor=none;" parent="1" vertex="1">
          <mxGeometry x="384.5" y="820" width="40" height="30" as="geometry" />
        </mxCell>
        <mxCell id="tfiWh8xOHerXuObjwz7h-149" style="edgeStyle=orthogonalEdgeStyle;rounded=0;orthogonalLoop=1;jettySize=auto;html=1;exitX=0.5;exitY=1;exitDx=0;exitDy=0;" parent="1" source="tfiWh8xOHerXuObjwz7h-38" target="tfiWh8xOHerXuObjwz7h-148" edge="1">
          <mxGeometry relative="1" as="geometry" />
        </mxCell>
        <mxCell id="tfiWh8xOHerXuObjwz7h-148" value="&lt;font color=&quot;#ff0000&quot;&gt;&lt;span style=&quot;font-size: 14px;&quot;&gt;&lt;b&gt;done&lt;/b&gt;&lt;/span&gt;&lt;/font&gt;" style="text;html=1;align=center;verticalAlign=middle;resizable=0;points=[];autosize=1;strokeColor=none;fillColor=none;" parent="1" vertex="1">
          <mxGeometry x="100.5" y="1040" width="60" height="30" as="geometry" />
        </mxCell>
        <mxCell id="tfiWh8xOHerXuObjwz7h-151" style="edgeStyle=orthogonalEdgeStyle;rounded=0;orthogonalLoop=1;jettySize=auto;html=1;entryX=0.75;entryY=0;entryDx=0;entryDy=0;" parent="1" source="tfiWh8xOHerXuObjwz7h-150" target="tfiWh8xOHerXuObjwz7h-139" edge="1">
          <mxGeometry relative="1" as="geometry" />
        </mxCell>
        <mxCell id="tfiWh8xOHerXuObjwz7h-152" value="/3" style="edgeLabel;html=1;align=center;verticalAlign=middle;resizable=0;points=[];" parent="tfiWh8xOHerXuObjwz7h-151" vertex="1" connectable="0">
          <mxGeometry x="-0.4375" y="-1" relative="1" as="geometry">
            <mxPoint as="offset" />
          </mxGeometry>
        </mxCell>
        <mxCell id="tfiWh8xOHerXuObjwz7h-150" value="4" style="text;html=1;align=center;verticalAlign=middle;resizable=0;points=[];autosize=1;strokeColor=none;fillColor=none;" parent="1" vertex="1">
          <mxGeometry x="390" y="900" width="30" height="30" as="geometry" />
        </mxCell>
        <mxCell id="tfiWh8xOHerXuObjwz7h-155" value="Get Index" style="rounded=0;whiteSpace=wrap;html=1;" parent="1" vertex="1">
          <mxGeometry x="540" y="680" width="165" height="130" as="geometry" />
        </mxCell>
        <mxCell id="tfiWh8xOHerXuObjwz7h-156" value="" style="rounded=0;whiteSpace=wrap;html=1;" parent="1" vertex="1">
          <mxGeometry x="670" y="480" width="120" height="60" as="geometry" />
        </mxCell>
        <mxCell id="tfiWh8xOHerXuObjwz7h-157" value="" style="triangle;whiteSpace=wrap;html=1;direction=east;" parent="1" vertex="1">
          <mxGeometry x="670" y="520" width="20" height="20" as="geometry" />
        </mxCell>
        <mxCell id="tfiWh8xOHerXuObjwz7h-158" value="en" style="text;html=1;strokeColor=none;fillColor=none;align=center;verticalAlign=middle;whiteSpace=wrap;rounded=0;" parent="1" vertex="1">
          <mxGeometry x="670" y="480" width="30" height="20" as="geometry" />
        </mxCell>
        <mxCell id="tfiWh8xOHerXuObjwz7h-159" value="rst" style="text;html=1;strokeColor=none;fillColor=none;align=center;verticalAlign=middle;whiteSpace=wrap;rounded=0;" parent="1" vertex="1">
          <mxGeometry x="670" y="500" width="30" height="20" as="geometry" />
        </mxCell>
        <mxCell id="tfiWh8xOHerXuObjwz7h-160" value="D" style="text;html=1;strokeColor=none;fillColor=none;align=center;verticalAlign=middle;whiteSpace=wrap;rounded=0;" parent="1" vertex="1">
          <mxGeometry x="700" y="480" width="60" height="20" as="geometry" />
        </mxCell>
        <mxCell id="tfiWh8xOHerXuObjwz7h-165" style="edgeStyle=orthogonalEdgeStyle;rounded=0;orthogonalLoop=1;jettySize=auto;html=1;entryX=0;entryY=0.5;entryDx=0;entryDy=0;" parent="1" source="tfiWh8xOHerXuObjwz7h-161" target="tfiWh8xOHerXuObjwz7h-162" edge="1">
          <mxGeometry relative="1" as="geometry">
            <Array as="points">
              <mxPoint x="730" y="660" />
              <mxPoint x="520" y="660" />
              <mxPoint x="520" y="695" />
            </Array>
          </mxGeometry>
        </mxCell>
        <mxCell id="tfiWh8xOHerXuObjwz7h-166" value="/512" style="edgeLabel;html=1;align=center;verticalAlign=middle;resizable=0;points=[];" parent="tfiWh8xOHerXuObjwz7h-165" vertex="1" connectable="0">
          <mxGeometry x="-0.6519" y="-2" relative="1" as="geometry">
            <mxPoint as="offset" />
          </mxGeometry>
        </mxCell>
        <mxCell id="tfiWh8xOHerXuObjwz7h-161" value="Q" style="text;html=1;strokeColor=none;fillColor=none;align=center;verticalAlign=middle;whiteSpace=wrap;rounded=0;" parent="1" vertex="1">
          <mxGeometry x="700" y="520" width="60" height="20" as="geometry" />
        </mxCell>
        <mxCell id="tfiWh8xOHerXuObjwz7h-162" value="din" style="text;html=1;strokeColor=none;fillColor=none;align=center;verticalAlign=middle;whiteSpace=wrap;rounded=0;" parent="1" vertex="1">
          <mxGeometry x="540" y="680" width="60" height="30" as="geometry" />
        </mxCell>
        <mxCell id="tfiWh8xOHerXuObjwz7h-167" style="edgeStyle=orthogonalEdgeStyle;rounded=0;orthogonalLoop=1;jettySize=auto;html=1;exitX=0.5;exitY=1;exitDx=0;exitDy=0;" parent="1" source="tfiWh8xOHerXuObjwz7h-139" target="tfiWh8xOHerXuObjwz7h-163" edge="1">
          <mxGeometry relative="1" as="geometry">
            <Array as="points">
              <mxPoint x="390" y="1050" />
              <mxPoint x="470" y="1050" />
              <mxPoint x="470" y="725" />
            </Array>
          </mxGeometry>
        </mxCell>
        <mxCell id="tfiWh8xOHerXuObjwz7h-170" value="/10" style="edgeLabel;html=1;align=center;verticalAlign=middle;resizable=0;points=[];" parent="tfiWh8xOHerXuObjwz7h-167" vertex="1" connectable="0">
          <mxGeometry x="-0.725" relative="1" as="geometry">
            <mxPoint as="offset" />
          </mxGeometry>
        </mxCell>
        <mxCell id="tfiWh8xOHerXuObjwz7h-163" value="start_index" style="text;html=1;strokeColor=none;fillColor=none;align=center;verticalAlign=middle;whiteSpace=wrap;rounded=0;" parent="1" vertex="1">
          <mxGeometry x="540" y="710" width="60" height="30" as="geometry" />
        </mxCell>
        <mxCell id="tfiWh8xOHerXuObjwz7h-172" style="edgeStyle=orthogonalEdgeStyle;rounded=0;orthogonalLoop=1;jettySize=auto;html=1;entryX=0.75;entryY=0;entryDx=0;entryDy=0;" parent="1" source="tfiWh8xOHerXuObjwz7h-164" target="tfiWh8xOHerXuObjwz7h-171" edge="1">
          <mxGeometry relative="1" as="geometry">
            <Array as="points">
              <mxPoint x="740" y="695" />
              <mxPoint x="740" y="830" />
              <mxPoint x="548" y="830" />
            </Array>
          </mxGeometry>
        </mxCell>
        <mxCell id="tfiWh8xOHerXuObjwz7h-173" value="/4" style="edgeLabel;html=1;align=center;verticalAlign=middle;resizable=0;points=[];" parent="tfiWh8xOHerXuObjwz7h-172" vertex="1" connectable="0">
          <mxGeometry x="-0.4667" y="3" relative="1" as="geometry">
            <mxPoint as="offset" />
          </mxGeometry>
        </mxCell>
        <mxCell id="tfiWh8xOHerXuObjwz7h-164" value="dout" style="text;html=1;strokeColor=none;fillColor=none;align=center;verticalAlign=middle;whiteSpace=wrap;rounded=0;" parent="1" vertex="1">
          <mxGeometry x="645" y="680" width="60" height="30" as="geometry" />
        </mxCell>
        <mxCell id="tfiWh8xOHerXuObjwz7h-176" style="edgeStyle=orthogonalEdgeStyle;rounded=0;orthogonalLoop=1;jettySize=auto;html=1;entryX=0;entryY=0.5;entryDx=0;entryDy=0;" parent="1" source="tfiWh8xOHerXuObjwz7h-171" target="tfiWh8xOHerXuObjwz7h-125" edge="1">
          <mxGeometry relative="1" as="geometry" />
        </mxCell>
        <mxCell id="tfiWh8xOHerXuObjwz7h-171" value="&lt;b&gt;XOR&lt;/b&gt;" style="rounded=0;whiteSpace=wrap;html=1;" parent="1" vertex="1">
          <mxGeometry x="510" y="850" width="50" height="20" as="geometry" />
        </mxCell>
      </root>
    </mxGraphModel>
  </diagram>
</mxfile>
